<svg width="1751" height="1942" viewBox="0 0 1751 1942" fill="none" xmlns="http://www.w3.org/2000/svg">
<path d="M381.509 1941.29V1750.53C381.509 1645.44 295.851 1559.78 190.756 1559.78C85.6646 1559.78 0.00390625 1645.44 0.00390625 1750.53C0.00390625 1855.63 85.6646 1941.29 190.756 1941.29H244.744V1847.71H190.756C136.769 1847.71 93.5822 1804.52 93.5822 1750.53C93.5822 1696.55 136.769 1653.36 190.756 1653.36C244.743 1653.36 287.933 1696.55 287.933 1750.53V1941.29H381.509Z" fill="#CBFE00"/>
<path d="M669.436 1818.91C650.722 1837.63 626.245 1846.99 601.773 1846.99C548.505 1846.99 503.877 1803.08 503.877 1749.82C503.877 1696.55 549.223 1653.36 601.773 1653.36C626.245 1653.36 650.722 1662.72 669.436 1681.43L735.657 1615.21C698.229 1577.78 649.998 1559.06 601.773 1559.06C496.678 1559.06 410.301 1645.44 410.301 1750.53C410.301 1854.91 497.396 1941.29 601.773 1941.29C649.998 1941.29 698.229 1922.57 735.657 1885.14L669.436 1818.91Z" fill="#CBFE00"/>
<path d="M821.314 1772.13C821.314 1893.78 873.863 1941.29 975.357 1941.29V1847.71C930.729 1847.71 914.891 1826.11 914.891 1772.13V1653.36H976.076V1559.78H914.891V1437.41H821.314V1559.78H764.449V1653.36H821.314V1772.13Z" fill="#CBFE00"/>
<path d="M1292.79 1750.53C1292.79 1804.52 1249.61 1847.71 1195.62 1847.71C1141.63 1847.71 1098.44 1804.52 1098.44 1750.53V1559.78H1004.87V1750.53C1004.87 1855.63 1090.52 1941.29 1195.62 1941.29C1300.71 1941.29 1386.37 1855.63 1386.37 1750.53V1559.78H1292.79V1750.53Z" fill="#CBFE00"/>
<path d="M1628.95 1796.6C1663.5 1796.6 1662.06 1846.27 1628.95 1846.27H1430.28V1939.85H1628.95C1790.91 1939.85 1791.63 1703.03 1628.95 1703.03H1537.53C1504.42 1703.03 1502.98 1653.36 1537.53 1653.36H1729.01V1559.78H1537.53C1374.85 1559.78 1375.57 1796.6 1537.53 1796.6H1628.95Z" fill="#CBFE00"/>
<path d="M846.565 0C852.737 5.76592 1750.68 1436.79 1750.68 1436.79L1500.87 1437.42L765.214 820.443L862.68 688.006L1232.4 999.275L848.226 452.562L58.2654 1435.86L0 1436.79C0 1436.79 778.68 104.719 846.565 0Z" fill="#CBFE00"/>
</svg>
