<svg width="2371" height="504" viewBox="0 0 2371 504" fill="none" xmlns="http://www.w3.org/2000/svg">
<path d="M1001.11 503.88V313.129C1001.11 208.033 915.452 122.375 810.357 122.375C705.266 122.375 619.605 208.033 619.605 313.129C619.605 418.224 705.266 503.88 810.357 503.88H864.346V410.3H810.357C756.37 410.3 713.184 367.116 713.184 313.129C713.184 259.142 756.37 215.951 810.357 215.951C864.344 215.951 907.534 259.142 907.534 313.129V503.88H1001.11Z" fill="#CBFE00"/>
<path d="M1289.04 381.508C1270.33 400.226 1245.85 409.581 1221.38 409.581C1168.11 409.581 1123.48 365.674 1123.48 312.41C1123.48 259.142 1168.83 215.951 1221.38 215.951C1245.85 215.951 1270.33 225.31 1289.04 244.024L1355.26 177.803C1317.83 140.37 1269.6 121.656 1221.38 121.656C1116.28 121.656 1029.91 208.033 1029.91 313.128C1029.91 417.501 1117 503.88 1221.38 503.88C1269.6 503.88 1317.83 485.162 1355.26 447.733L1289.04 381.508Z" fill="#CBFE00"/>
<path d="M1440.92 334.717C1440.92 456.366 1493.46 503.877 1594.96 503.877V410.297C1550.33 410.297 1534.49 388.704 1534.49 334.717V215.948H1595.68V122.372H1534.49V0.00390625H1440.92V122.372H1384.05V215.948H1440.92V334.717Z" fill="#CBFE00"/>
<path d="M1912.39 313.129C1912.39 367.116 1869.21 410.3 1815.22 410.3C1761.23 410.3 1718.04 367.116 1718.04 313.129V122.375H1624.47V313.129C1624.47 418.224 1710.13 503.88 1815.22 503.88C1920.31 503.88 2005.97 418.224 2005.97 313.129V122.375H1912.39V313.129Z" fill="#CBFE00"/>
<path d="M2248.55 359.196C2283.1 359.196 2281.67 408.863 2248.55 408.863H2049.88V502.439H2248.55C2410.52 502.439 2411.23 265.622 2248.55 265.622H2157.14C2124.03 265.622 2122.58 215.951 2157.14 215.951H2348.61V122.375H2157.14C1994.46 122.375 1995.18 359.196 2157.14 359.196H2248.55Z" fill="#CBFE00"/>
<path d="M296.755 0C298.918 2.02118 613.685 503.653 613.685 503.653L526.116 503.872L268.238 287.598L302.404 241.173L432.007 350.285L297.337 158.641L20.4244 503.327L0 503.653C0 503.653 272.958 36.708 296.755 0Z" fill="#CBFE00"/>
</svg>
